<?xml version="1.0" standalone="no"?><!DOCTYPE svg PUBLIC "-//W3C//DTD SVG 1.1//EN" "http://www.w3.org/Graphics/SVG/1.1/DTD/svg11.dtd"><svg class="icon" width="200px" height="199.80px" viewBox="0 0 1025 1024" version="1.1" xmlns="http://www.w3.org/2000/svg"><path d="M308.6 953.2h-75.6c-89 0-161.2-72.4-161.2-161.2v-79.4c0-19.6-15.8-35.4-35.4-35.4S1 693 1 712.6V792c0 128 104.2 232 232.2 232h75.6c19.6 0 35.4-15.8 35.4-35.4-0.2-19.6-16-35.4-35.6-35.4zM989.4 677c-19.6 0-35.4 15.8-35.4 35.4V792c0 89-72.4 161.2-161.2 161.2h-75.6c-19.6 0-35.4 15.8-35.4 35.4 0 19.6 15.8 35.4 35.4 35.4h75.6c128 0 232-104 232-232v-79.4c0.2-19.6-15.8-35.6-35.4-35.6zM792.8 0h-75.6c-19.6 0-35.4 15.8-35.4 35.4 0 19.6 15.8 35.4 35.4 35.4h75.6c89 0 161.2 72.4 161.2 161.2v72c0 19.6 15.8 35.4 35.4 35.4s35.4-15.8 35.4-35.4v-71.8c0.2-128-104-232.2-232-232.2zM36.4 343.2c19.6 0 35.4-15.8 35.4-35.4v-75.6c0-89 72.4-161.2 161.2-161.2h75.6c19.4 0 35.4-15.8 35.4-35.4C344 15.8 328.2 0 308.6 0h-75.6C105 0 1 104.2 1 232.2v75.6c0 19.6 15.8 35.4 35.4 35.4zM989.4 472.6H36.4C16.8 472.6 1 488.4 1 508c0 19.6 15.8 35.4 35.4 35.4h953.2c19.6 0 35.4-15.8 35.4-35.4 0-19.4-16-35.4-35.6-35.4z"  /></svg>